# xmcd
#
# Track frame offsets: 
#        150
#        16944
#        35156
#        51346
#        70584
#        89618
#        105068
#        119200
#        139100
#
# Disc length: 2088 seconds
#
# Revision: 0
# Processed by: cddbd v1.5PL3 Copyright (c) Steve Scherf et al.
# Submitted via: ExactAudioCopy v0.95a3
#
DISCID=7a082609
DTITLE=Jackie Brown - Treasure
DYEAR=1900
DGENRE=woman vocal
TTITLE0=Crazy
TTITLE1=Run Away with Me
TTITLE2=Anyways
TTITLE3=Treasure
TTITLE4=24 Hours to Yesterday
TTITLE5=Queen of Someone's Heart
TTITLE6=I want you to know
TTITLE7=Sir Patrick
TTITLE8=Gossamer
EXTD=
EXTT0=
EXTT1=
EXTT2=
EXTT3=
EXTT4=
EXTT5=
EXTT6=
EXTT7=
EXTT8=
PLAYORDER=
